
<svg width="50px" height="50px" viewBox="0 0 50 50" version="1.1" xmlns="http://www.w3.org/2000/svg" xmlns:xlink="http://www.w3.org/1999/xlink">
    <!-- Generator: Sketch 45.2 (43514) - http://www.bohemiancoding.com/sketch -->
    <desc>Created with Sketch.</desc>
    <defs></defs>
    <g id="Page-1" stroke="none" stroke-width="1" fill="none" fill-rule="evenodd">
        <g id="email" transform="translate(0.000000, -50.000000)" fill-rule="nonzero" fill="#CCCCCC">
            <g id="closed-envelope-circle" transform="translate(0.000000, 50.000000)">
                <path d="M25,50 C22.7,50 20.4833333,49.7 18.35,49.1 C16.2166667,48.4997549 14.225,47.6583333 12.375,46.575 C10.525,45.4916667 8.84166667,44.1916667 7.325,42.675 C5.80833333,41.1584967 4.50833333,39.475 3.425,37.625 C2.34166667,35.7748366 1.5,33.7833333 0.9,31.6499183 C0.3,29.5166667 0,27.3 0,25 C0,22.7 0.3,20.4833333 0.9,18.35 C1.5,16.2166667 2.34166667,14.225 3.425,12.375 C4.50833333,10.525 5.80833333,8.84166667 7.325,7.325 C8.84166667,5.80833333 10.525,4.50833333 12.375,3.425 C14.225,2.34166667 16.2166667,1.5 18.35,0.9 C20.4833333,0.3 22.7,0 25,0 C28.4333333,0 31.675,0.658333333 34.725,1.975 C37.775,3.29166667 40.425,5.075 42.675,7.325 C44.925,9.575 46.7083333,12.225 48.025,15.275 C49.3416667,18.325 50,21.5666667 50,25 C50,27.3 49.7,29.5166667 49.1,31.65 C48.4997549,33.7830882 47.6583333,35.7747549 46.575,37.625 C45.4916667,39.475 44.1916667,41.1583333 42.675,42.675 C41.1584967,44.1916667 39.475,45.4919118 37.625,46.575 C35.7748366,47.6583333 33.7833333,48.5 31.6498366,49.1 C29.5166667,49.7 27.3,50 25,50 Z M37.2950802,15.8383467 L12.1569832,15.8383467 C11.9094914,15.8383467 11.6973555,15.9092023 11.5205757,16.0509134 C11.3437958,16.1926246 11.2554059,16.3894457 11.2554059,16.6413766 L11.2554059,19.1449406 C11.2554059,19.2709061 11.3084398,19.3338888 11.4145077,19.3338888 L24.6199638,26.0415507 L24.7262917,26.0887877 C24.7967436,26.0887877 24.8500376,26.073042 24.8853935,26.0415507 L37.6665779,19.3338888 C37.7370299,19.3023974 37.7903238,19.2866517 37.8256798,19.2866517 C37.8607758,19.2866517 37.9140697,19.2709061 37.9847817,19.2394147 C38.1262055,19.2394147 38.1969175,19.1764319 38.1969175,19.0504665 L38.1969175,16.6413766 C38.1969175,16.3894457 38.1084409,16.1926246 37.9314877,16.0509134 C37.7545345,15.9092023 37.542572,15.8383467 37.2950802,15.8383467 Z M19.2635338,25.8998395 C19.2988898,25.8683481 19.3165678,25.8210339 19.3165678,25.7581283 C19.3165678,25.6634227 19.2812118,25.6164172 19.2104999,25.6164172 L11.6266436,21.7429014 C11.5205757,21.7114101 11.4321857,21.7114101 11.3614738,21.7429014 C11.2907618,21.7429014 11.2554059,21.7901385 11.2554059,21.8846126 L11.2554059,32.0405795 C11.2554059,32.1352852 11.3084398,32.1980364 11.4145077,32.2295278 L11.5205757,32.2295278 C11.5912876,32.2295278 11.6266436,32.2137821 11.6266436,32.1822907 L19.2635338,25.8998395 Z M28.4914429,26.6556324 C28.4560869,26.5609267 28.367437,26.5454126 28.2260131,26.6083953 L25.3091453,28.1199811 C24.9555855,28.3089293 24.5846078,28.3089293 24.1954321,28.1199811 L21.649802,26.8448122 C21.5437341,26.7818294 21.4553442,26.7818294 21.3846322,26.8448122 L11.6794176,34.8751116 C11.6440616,34.9063714 11.6263836,34.9695857 11.6263836,35.0638283 C11.6263836,35.0953196 11.6617396,35.1426339 11.7324515,35.2055394 C11.9445874,35.2685222 12.0860113,35.3002451 12.1567232,35.3002451 L37.0297371,35.3002451 C37.100449,35.3002451 37.171421,35.2687537 37.2418729,35.2055394 C37.2418729,35.079574 37.2241949,35.0010771 37.188839,34.9693542 L28.4914429,26.6556324 Z M37.763762,21.5540304 L37.5421673,21.5540304 L29.9987041,25.3802319 C29.9250205,25.3802319 29.8877708,25.427469 29.8877708,25.5219431 C29.8507931,25.5534344 29.869282,25.6006715 29.9429656,25.6634227 L37.4864288,32.6075014 C37.5603843,32.6704841 37.6158509,32.702207 37.6528287,32.702207 L37.763762,32.702207 C37.8749672,32.6075014 37.9304338,32.5447502 37.9304338,32.5132588 L37.9304338,21.7430558 C37.9301619,21.6799959 37.8746953,21.6170131 37.763762,21.5540304 Z" id="Shape"></path>
            </g>
        </g>
    </g>
</svg>