
<svg width="50px" height="50px" viewBox="0 0 50 50" version="1.1" xmlns="http://www.w3.org/2000/svg" xmlns:xlink="http://www.w3.org/1999/xlink">
    <!-- Generator: Sketch 45.2 (43514) - http://www.bohemiancoding.com/sketch -->
    <desc>Created with Sketch.</desc>
    <defs></defs>
    <g id="Page-1" stroke="none" stroke-width="1" fill="none" fill-rule="evenodd">
        <g id="news" fill-rule="nonzero" fill="#CCCCCC">
            <path d="M24.826,0 C38.516,0 49.652,11.137 49.652,24.826 C49.652,38.514 38.514,49.652 24.826,49.652 C11.137,49.652 0,38.514 0,24.826 C0,11.137 11.137,0 24.826,0 Z M39.71887,14.5211931 L37.6061541,14.5211931 L37.6061541,12.4084773 C37.6061541,11.6318429 36.9743112,11 36.1976769,11 L11.4084773,11 C10.6318429,11 10,11.6318429 10,12.4084773 L10,34.9441133 C10,36.8856992 11.5796072,38.4653064 13.5211931,38.4653064 L37.6061541,38.4653064 C39.54774,38.4653064 41.1273473,36.8856992 41.1273473,34.9441133 L41.1273473,15.9296704 C41.1273473,15.153036 40.4955044,14.5211931 39.71887,14.5211931 Z M39.71887,34.9441133 C39.71887,36.1090648 38.7711057,37.0568292 37.6061541,37.0568292 L13.5211931,37.0568292 C12.3562416,37.0568292 11.4084773,36.1090648 11.4084773,34.9441133 L11.4084773,12.4084773 L36.1976769,12.4084773 L36.1976769,33.8877553 C36.1976769,34.8585483 36.9874805,35.6483519 37.9582734,35.6483519 C38.347154,35.6483519 38.6625121,35.3330643 38.6625121,34.9441133 C38.6625121,34.5551623 38.347154,34.2398747 37.9582734,34.2398747 C37.7641149,34.2398747 37.6061541,34.0819139 37.6061541,33.8877553 L37.6061541,15.9296704 L39.71887,15.9296704 L39.71887,34.9441133 Z M22.0424805,32.8313974 L14.9296704,32.8313974 C14.5407194,32.8313974 14.2254318,33.146685 14.2254318,33.535636 C14.2254318,33.924587 14.5407194,34.2398747 14.9296704,34.2398747 L22.0424805,34.2398747 C22.4314315,34.2398747 22.7467191,33.924587 22.7467191,33.535636 C22.7467191,33.146685 22.4314315,32.8313974 22.0424805,32.8313974 Z M32.6764838,32.8313974 L25.5636736,32.8313974 C25.1747226,32.8313974 24.859435,33.146685 24.859435,33.535636 C24.859435,33.924587 25.1747226,34.2398747 25.5636736,34.2398747 L32.6764838,34.2398747 C33.0653643,34.2398747 33.3807224,33.924587 33.3807224,33.535636 C33.3807224,33.146685 33.0653643,32.8313974 32.6764838,32.8313974 Z M32.6764838,15.2254318 L14.9296704,15.2254318 C14.5407194,15.2254318 14.2254318,15.5407194 14.2254318,15.9296704 C14.2254318,16.3186214 14.5407194,16.633909 14.9296704,16.633909 L32.6764838,16.633909 C33.0653643,16.633909 33.3807224,16.3186214 33.3807224,15.9296704 C33.3807224,15.5407194 33.0653643,15.2254318 32.6764838,15.2254318 Z M32.6764838,18.7466249 L25.5636736,18.7466249 C25.1747226,18.7466249 24.859435,19.0619125 24.859435,19.4508635 C24.859435,19.8398145 25.1747226,20.1551021 25.5636736,20.1551021 L32.6764838,20.1551021 C33.0653643,20.1551021 33.3807224,19.8398145 33.3807224,19.4508635 C33.3807224,19.0619125 33.0653643,18.7466249 32.6764838,18.7466249 Z M32.6764838,22.267818 L25.5636736,22.267818 C25.1747226,22.267818 24.859435,22.5831056 24.859435,22.9720566 C24.859435,23.3610076 25.1747226,23.6762953 25.5636736,23.6762953 L32.6764838,23.6762953 C33.0653643,23.6762953 33.3807224,23.3610076 33.3807224,22.9720566 C33.3807224,22.5831056 33.0653643,22.267818 32.6764838,22.267818 Z M32.6764838,25.7890111 L25.5636736,25.7890111 C25.1747226,25.7890111 24.859435,26.1042988 24.859435,26.4932498 C24.859435,26.8822008 25.1747226,27.1974884 25.5636736,27.1974884 L32.6764838,27.1974884 C33.0653643,27.1974884 33.3807224,26.8822008 33.3807224,26.4932498 C33.3807224,26.1042988 33.0653643,25.7890111 32.6764838,25.7890111 Z M32.6764838,29.3102043 L25.5636736,29.3102043 C25.1747226,29.3102043 24.859435,29.6254919 24.859435,30.0144429 C24.859435,30.4033939 25.1747226,30.7186815 25.5636736,30.7186815 L32.6764838,30.7186815 C33.0653643,30.7186815 33.3807224,30.4033939 33.3807224,30.0144429 C33.3807224,29.6254919 33.0653643,29.3102043 32.6764838,29.3102043 Z M22.0424805,29.3102043 L14.9296704,29.3102043 C14.5407194,29.3102043 14.2254318,29.6254919 14.2254318,30.0144429 C14.2254318,30.4033939 14.5407194,30.7186815 14.9296704,30.7186815 L22.0424805,30.7186815 C22.4314315,30.7186815 22.7467191,30.4033939 22.7467191,30.0144429 C22.7467191,29.6254919 22.4314315,29.3102043 22.0424805,29.3102043 Z M22.0424805,18.7466249 L14.9296704,18.7466249 C14.5407194,18.7466249 14.2254318,19.0619125 14.2254318,19.4508635 L14.2254318,26.5636736 C14.2254318,26.9526246 14.5407194,27.2679123 14.9296704,27.2679123 L22.0424805,27.2679123 C22.4314315,27.2679123 22.7467191,26.9526246 22.7467191,26.5636736 L22.7467191,19.4508635 C22.7467191,19.0619125 22.4314315,18.7466249 22.0424805,18.7466249 Z M21.3382419,25.859435 L15.633909,25.859435 L15.633909,20.1551021 L21.3382419,20.1551021 L21.3382419,25.859435 Z" id="Shape"></path>
        </g>
    </g>
</svg>