
<svg width="50px" height="50px" viewBox="0 0 50 50" version="1.1" xmlns="http://www.w3.org/2000/svg" xmlns:xlink="http://www.w3.org/1999/xlink">
    <!-- Generator: Sketch 45.2 (43514) - http://www.bohemiancoding.com/sketch -->
    <desc>Created with Sketch.</desc>
    <defs></defs>
    <g id="Page-1" stroke="none" stroke-width="1" fill="none" fill-rule="evenodd">
        <g id="document" fill-rule="nonzero" fill="#CCCCCC">
            <path d="M24.826,0 C38.516,0 49.652,11.137 49.652,24.826 C49.652,38.514 38.514,49.652 24.826,49.652 C11.137,49.652 0,38.514 0,24.826 C0,11.137 11.137,0 24.826,0 Z M29.1491651,10.1884694 L13.5011227,10.1884694 L13.5011227,39.5153591 L36.1906393,39.5153591 L36.1906393,17.3178363 L29.1491651,10.1884694 Z M29.4320599,11.8571694 L34.5425115,17.0314103 L29.4320599,17.0314103 L29.4320599,11.8571694 Z M30.8803269,20.9416623 L18.8114351,20.9416623 C18.544954,20.9416623 18.3286794,21.1601476 18.3286794,21.4304438 C18.3286794,21.70074 18.544954,21.9192253 18.8114351,21.9192253 L30.8803269,21.9192253 C31.1468081,21.9192253 31.3630826,21.70074 31.3630826,21.4304438 C31.3630826,21.1601476 31.1468081,20.9416623 30.8803269,20.9416623 Z M18.8114351,18.0089733 L23.6389918,18.0089733 C23.905473,18.0089733 24.1217475,17.790488 24.1217475,17.5201918 C24.1217475,17.2498957 23.905473,17.0314103 23.6389918,17.0314103 L18.8114351,17.0314103 C18.544954,17.0314103 18.3286794,17.2498957 18.3286794,17.5201918 C18.3286794,17.790488 18.544954,18.0089733 18.8114351,18.0089733 Z M30.8803269,24.8519143 L18.8114351,24.8519143 C18.544954,24.8519143 18.3286794,25.0703996 18.3286794,25.3406958 C18.3286794,25.6109919 18.544954,25.8294773 18.8114351,25.8294773 L30.8803269,25.8294773 C31.1468081,25.8294773 31.3630826,25.6109919 31.3630826,25.3406958 C31.3630826,25.0703996 31.1468081,24.8519143 30.8803269,24.8519143 Z M30.8803269,28.7621662 L18.8114351,28.7621662 C18.544954,28.7621662 18.3286794,28.9806516 18.3286794,29.2509477 C18.3286794,29.5212439 18.544954,29.7397292 18.8114351,29.7397292 L30.8803269,29.7397292 C31.1468081,29.7397292 31.3630826,29.5212439 31.3630826,29.2509477 C31.3630826,28.9806516 31.1468081,28.7621662 30.8803269,28.7621662 Z M30.8803269,32.6724182 L18.8114351,32.6724182 C18.544954,32.6724182 18.3286794,32.8909035 18.3286794,33.1611997 C18.3286794,33.4314959 18.544954,33.6499812 18.8114351,33.6499812 L30.8803269,33.6499812 C31.1468081,33.6499812 31.3630826,33.4314959 31.3630826,33.1611997 C31.3630826,32.8909035 31.1468081,32.6724182 30.8803269,32.6724182 Z M14.4666341,38.5377961 L14.4666341,11.1660324 L28.4665486,11.1660324 L28.4665486,18.0089733 L35.225128,18.0089733 L35.225128,38.5377961 L14.4666341,38.5377961 Z" id="Shape"></path>
        </g>
    </g>
</svg>