
<svg width="50px" height="50px" viewBox="0 0 50 50" version="1.1" xmlns="http://www.w3.org/2000/svg" xmlns:xlink="http://www.w3.org/1999/xlink">
    <!-- Generator: Sketch 45.2 (43514) - http://www.bohemiancoding.com/sketch -->
    <desc>Created with Sketch.</desc>
    <defs></defs>
    <g id="Page-1" stroke="none" stroke-width="1" fill="none" fill-rule="evenodd">
        <g id="email" fill-rule="nonzero" fill="#999999">
            <path d="M24.826,0 C38.516,0 49.652,11.137 49.652,24.826 C49.652,38.514 38.514,49.652 24.826,49.652 C11.137,49.652 0,38.514 0,24.826 C0,11.137 11.137,0 24.826,0 Z M35.5147185,13.6629038 L14.2563993,13.6629038 C12.4320692,13.6629038 10.9478313,15.1002019 10.9478313,16.8668302 L10.9478313,31.8082125 C10.9478313,33.5748408 12.4320692,35.0121388 14.2563993,35.0121388 L35.5147185,35.0121388 C37.3390486,35.0121388 38.8232135,33.5748408 38.8232135,31.8082125 L38.8232135,16.8668302 C38.8232135,15.1002019 37.3390486,13.6629038 35.5147185,13.6629038 Z M35.7688454,32.1031003 L14.5105263,32.1031003 C14.2423626,32.1031003 14.0071723,31.9277321 14.0071723,31.7277212 L14.0071723,18.7620996 L23.6217452,26.9471733 C23.8188557,27.1150383 24.0695114,27.2074302 24.327608,27.2074302 L25.951399,27.2075038 C26.2093497,27.2075038 26.4601513,27.1150383 26.6573348,26.9471733 L36.2723454,18.7618054 L36.2723454,31.7278683 C36.2721995,31.9277321 36.0369362,32.1031003 35.7688454,32.1031003 Z M25.3981027,24.7101764 L16.0467329,16.7222447 L34.7494725,16.7222447 L25.3981027,24.7101764 Z" id="Shape"></path>
        </g>
    </g>
</svg>