
<svg width="51px" height="50px" viewBox="0 0 51 50" version="1.1" xmlns="http://www.w3.org/2000/svg" xmlns:xlink="http://www.w3.org/1999/xlink">
    <!-- Generator: Sketch 45.2 (43514) - http://www.bohemiancoding.com/sketch -->
    <desc>Created with Sketch.</desc>
    <defs></defs>
    <g id="Page-1" stroke="none" stroke-width="1" fill="none" fill-rule="evenodd">
        <g id="stackoverflow" fill-rule="nonzero" fill="#CCCCCC">
            <path d="M25.3207714,1.33226763e-15 C11.6101606,1.33226763e-15 0.494762459,11.1133818 0.494762459,24.8239926 C0.494762459,38.5346034 11.6101606,49.6500015 25.3207714,49.6500015 C39.0302732,49.6500015 50.1456713,38.5346034 50.1456713,24.8239926 C50.1456713,11.1133818 39.030374,1.33226763e-15 25.3207714,1.33226763e-15 Z M22.372719,17.0722161 L32.845226,23.2490022 L31.5259383,25.4854316 L21.052838,19.3083488 L22.372719,17.0722161 Z M19.571248,23.0629628 L31.3125024,26.2193033 L30.6385668,28.7270279 L18.8967191,25.5706874 L19.571248,23.0629628 Z M18.4069438,28.4924263 L30.5136504,29.6079706 L30.2754883,32.1932363 L18.168485,31.0784832 L18.4069438,28.4924263 Z M30.2199039,32.9374929 L30.2214864,35.5344293 L18.0625582,35.5400669 L18.0613714,32.9434272 L30.2199039,32.9374929 Z M34.3425418,39.6457921 L14.8886127,39.6556825 C14.8886127,39.6556825 14.2823279,39.6556825 14.2823279,39.6457921 L14.2616568,26.9923412 L16.3386521,26.9923412 L16.3386521,37.6083586 L32.2861186,37.6083586 L32.2861186,26.9923412 L34.363015,26.9923412 L34.363015,39.0392105 C34.3629161,39.0392105 34.3629161,39.6457921 34.3425418,39.6457921 Z M33.2678451,22.8926492 L26.4171234,12.8477066 L28.5627584,11.3847107 L35.4129856,21.4303456 L33.2678451,22.8926492 Z M35.8781336,21.2723951 L33.7986657,9.29347314 L36.3572272,8.84939176 L38.4371896,20.8284126 L35.8781336,21.2723951 Z" id="Shape"></path>
        </g>
    </g>
</svg>